<svg width="283" height="33" viewBox="0 0 283 33" fill="none" xmlns="http://www.w3.org/2000/svg">
<path d="M68.4351 28.6998C64.9164 28.6998 62.026 27.5231 59.7639 25.1696C57.5019 22.8162 56.3708 19.8915 56.3708 16.3956C56.3708 12.8997 57.5019 9.97504 59.7639 7.62159C62.026 5.26814 64.9164 4.09141 68.4351 4.09141C70.9257 4.09141 73.1078 4.69691 74.9814 5.90791C76.855 7.11891 78.2602 8.76404 79.197 10.8433L76.0096 12.557C75.3698 11.0489 74.3873 9.84937 73.0621 8.95825C71.7368 8.04429 70.1945 7.58731 68.4351 7.58731C65.9446 7.58731 63.9225 8.43273 62.3687 10.1236C60.815 11.8144 60.0381 13.9051 60.0381 16.3956C60.0381 18.8862 60.815 20.9768 62.3687 22.6677C63.9225 24.3585 65.9446 25.2039 68.4351 25.2039C70.2631 25.2039 71.8511 24.7241 73.1992 23.7644C74.5473 22.8048 75.5298 21.5252 76.1467 19.9258L79.2999 21.6052C78.4316 23.7759 77.0378 25.501 75.1185 26.7805C73.222 28.06 70.9942 28.6998 68.4351 28.6998Z" fill="#501669"/>
<path d="M96.9515 26.1293C95.215 27.843 92.9987 28.6998 90.3025 28.6998C87.6063 28.6998 85.3785 27.843 83.6191 26.1293C81.8826 24.4156 81.0143 22.2335 81.0143 19.5831C81.0143 16.9326 81.8826 14.7505 83.6191 13.0368C85.3785 11.3003 87.6063 10.432 90.3025 10.432C92.9987 10.432 95.215 11.3003 96.9515 13.0368C98.7109 14.7505 99.5906 16.9326 99.5906 19.5831C99.5906 22.2107 98.7109 24.3928 96.9515 26.1293ZM86.1211 15.2989C85.0243 16.4185 84.476 17.8465 84.476 19.5831C84.476 21.3196 85.0358 22.7476 86.1554 23.8673C87.275 24.9869 88.6573 25.5467 90.3025 25.5467C91.9705 25.5467 93.3528 24.9869 94.4496 23.8673C95.5692 22.7476 96.129 21.3196 96.129 19.5831C96.129 17.8465 95.5692 16.4185 94.4496 15.2989C93.3528 14.1793 91.9705 13.6195 90.3025 13.6195C88.6345 13.6195 87.2407 14.1793 86.1211 15.2989Z" fill="#501669"/>
<path d="M102.849 28.3914V10.7405H106.276V12.934C107.327 11.266 109.018 10.432 111.349 10.432C113.291 10.432 114.879 11.0718 116.113 12.3513C117.37 13.6309 117.998 15.2303 117.998 17.1496V28.3914H114.571V17.9722C114.571 16.647 114.182 15.5959 113.405 14.819C112.628 14.0422 111.634 13.6537 110.423 13.6537C109.235 13.6537 108.241 14.0536 107.442 14.8533C106.665 15.653 106.276 16.6927 106.276 17.9722V28.3914H102.849Z" fill="#501669"/>
<path d="M122.438 28.3914V10.7405H125.866V12.934C126.917 11.266 128.608 10.432 130.938 10.432C132.88 10.432 134.468 11.0718 135.702 12.3513C136.959 13.6309 137.587 15.2303 137.587 17.1496V28.3914H134.16V17.9722C134.16 16.647 133.772 15.5959 132.995 14.819C132.218 14.0422 131.224 13.6537 130.013 13.6537C128.825 13.6537 127.831 14.0536 127.031 14.8533C126.254 15.653 125.866 16.6927 125.866 17.9722V28.3914H122.438Z" fill="#501669"/>
<path d="M149.431 28.6998C146.758 28.6998 144.598 27.8316 142.953 26.095C141.308 24.3585 140.486 22.1878 140.486 19.5831C140.486 16.9554 141.308 14.7733 142.953 13.0368C144.598 11.3003 146.746 10.432 149.397 10.432C151.91 10.432 153.944 11.2889 155.497 13.0025C157.051 14.6934 157.828 16.7498 157.828 19.1718V20.7826H143.947C144.153 22.3821 144.747 23.5931 145.729 24.4156C146.735 25.2153 147.969 25.6152 149.431 25.6152C150.733 25.6152 151.842 25.2953 152.756 24.6555C153.692 23.9929 154.309 23.2275 154.606 22.3592L157.245 23.7644C156.766 24.9983 155.863 26.1293 154.538 27.1575C153.213 28.1857 151.51 28.6998 149.431 28.6998ZM144.05 17.9037H154.264C154.241 16.7384 153.772 15.7101 152.858 14.819C151.967 13.9051 150.802 13.4481 149.362 13.4481C148.014 13.4481 146.861 13.8365 145.901 14.6134C144.941 15.3903 144.324 16.487 144.05 17.9037Z" fill="#501669"/>
<path d="M168.622 28.6998C166.086 28.6998 163.938 27.8544 162.179 26.1636C160.419 24.4499 159.54 22.245 159.54 19.5488C159.54 16.8526 160.408 14.6591 162.144 12.9683C163.904 11.2774 166.063 10.432 168.622 10.432C170.724 10.432 172.461 10.9347 173.832 11.9401C175.203 12.9454 176.162 14.1564 176.711 15.5731L173.729 17.1154C173.386 16.1329 172.769 15.3103 171.878 14.6477C171.01 13.9622 169.924 13.6195 168.622 13.6195C166.977 13.6195 165.629 14.1793 164.578 15.2989C163.527 16.4185 163.001 17.8351 163.001 19.5488C163.001 21.2396 163.527 22.6677 164.578 23.833C165.629 24.9754 166.977 25.5467 168.622 25.5467C169.902 25.5467 170.987 25.2153 171.878 24.5527C172.769 23.8901 173.386 23.079 173.729 22.1193L176.711 23.6616C176.162 25.0326 175.191 26.2207 173.797 27.2261C172.404 28.2086 170.678 28.6998 168.622 28.6998Z" fill="#501669"/>
<path d="M181.167 28.3914V13.7566H178.014V10.7405H181.27V6.1821H184.595V10.7405H189.153V13.7566H184.595V25.1696H189.222V28.3914H181.167Z" fill="#501669"/>
<path d="M200.379 28.3914V4.39987H216.145V7.65586H203.909V14.4077H215.082V17.6295H203.909V25.1354H216.145V28.3914H200.379Z" fill="#501669"/>
<path d="M224.828 28.7341C223.046 28.7341 221.583 28.22 220.441 27.1918C219.298 26.1636 218.727 24.8498 218.727 23.2503C218.727 21.6737 219.264 20.3828 220.338 19.3774C221.412 18.3721 222.92 17.8008 224.862 17.6637L230.072 17.321V17.1154C230.072 16.2014 229.672 15.3788 228.872 14.6477C228.095 13.8936 227.044 13.5166 225.719 13.5166C224.508 13.5166 223.537 13.8251 222.806 14.442C222.074 15.0589 221.572 15.7673 221.298 16.567L218.59 15.196C219.047 13.8936 219.87 12.774 221.058 11.8372C222.269 10.9004 223.834 10.432 225.753 10.432C228.129 10.432 230.003 11.1175 231.374 12.4884C232.768 13.8594 233.465 15.4474 233.465 17.2525V28.3914H230.072V26.3692C229.615 27.0775 228.906 27.6488 227.947 28.0829C226.987 28.517 225.947 28.7341 224.828 28.7341ZM222.154 23.1818C222.154 23.9586 222.44 24.5756 223.011 25.0326C223.582 25.4895 224.302 25.718 225.171 25.718C226.679 25.718 227.878 25.2839 228.769 24.4156C229.683 23.5474 230.14 22.5077 230.14 21.2967V20.2L225.102 20.5427C224.211 20.5884 223.491 20.8398 222.943 21.2967C222.417 21.7537 222.154 22.3821 222.154 23.1818Z" fill="#501669"/>
<path d="M237.91 28.3914V10.7405H241.337V13.8936L248.02 10.3635V14.065L241.337 17.3895V28.3914H237.91Z" fill="#501669"/>
<path d="M252.974 28.3914V13.7566H249.821V10.7405H253.077V6.1821H256.402V10.7405H260.96V13.7566H256.402V25.1696H261.029V28.3914H252.974Z" fill="#501669"/>
<path d="M264.504 28.3914V3.02893H267.931V12.934C269.028 11.266 270.741 10.432 273.072 10.432C275.014 10.432 276.591 11.0718 277.802 12.3513C279.036 13.6309 279.653 15.2303 279.653 17.1496V28.3914H276.225V17.9722C276.225 16.647 275.837 15.5959 275.06 14.819C274.283 14.0422 273.289 13.6537 272.078 13.6537C270.89 13.6537 269.896 14.0536 269.096 14.8533C268.319 15.653 267.931 16.6927 267.931 17.9722V28.3914H264.504Z" fill="#501669"/>
<ellipse cx="35.9366" cy="16.2795" rx="12.7335" ry="12.8524" fill="#501669"/>
<path d="M22.0098 5.85645L11.5723 16.3906L22.0098 26.9258L16.207 32.7832L0 16.4238L0.0322266 16.3906L0 16.3584L16.207 0L22.0098 5.85645Z" fill="#501669"/>
</svg>
